<svg width="371" height="352" viewBox="0 0 371 352" fill="none" xmlns="http://www.w3.org/2000/svg">
<path d="M112.801 146.363V170.813H109.751L113.901 181.413H109.301L105.151 170.813H101.701V181.363H97.1014V146.363H112.801ZM108.201 166.213V150.963H101.701V166.213H108.201ZM118.879 146.363H134.579V150.963H123.479V166.213H134.579V170.813H123.479V176.763H134.579V181.363H118.879V146.363ZM141.833 166.213H152.933V150.963H146.433V159.413H141.833V146.363H157.533V181.363H141.833V166.213ZM152.933 176.763V170.813H146.433V176.763H152.933ZM164.387 146.363H168.987V176.763H179.337V181.363H164.387V146.363ZM217.19 146.363V150.963H212.34V181.363H207.74V150.963H202.69V146.363H217.19ZM226.604 181.363H222.004V146.363H226.604V181.363ZM233.137 181.363V146.363H237.787L246.537 174.063L255.287 146.363H259.937V181.363H255.337V160.763L248.837 181.363H244.237L237.737 160.763V181.363H233.137ZM266.681 146.363H282.381V150.963H271.281V166.213H282.381V170.813H271.281V176.763H282.381V181.363H266.681V146.363Z" fill="black"/>
<path d="M123.32 190.676H256.477" stroke="black"/>
<path d="M133.798 214.176H131.498V196.676H133.798V214.176ZM137.065 196.676H139.39L142.615 206.901V196.676H144.915V214.176H142.615L139.365 203.876V214.176H137.065V196.676ZM155.507 196.676V198.976H153.082V214.176H150.782V198.976H148.257V196.676H155.507ZM157.914 196.676H165.764V198.976H160.214V206.601H165.764V208.901H160.214V211.876H165.764V214.176H157.914V196.676ZM169.291 196.676H171.591V211.876H176.766V214.176H169.291V196.676ZM178.911 196.676H181.211V211.876H186.386V214.176H178.911V196.676ZM190.83 214.176H188.53V196.676H190.83V214.176ZM194.196 196.676H202.046V203.201H199.746V198.976H196.496V211.876H199.746V208.876H198.121V206.576H201.971V206.601H202.046V214.176H194.196V196.676ZM205.302 196.676H213.152V198.976H207.602V206.601H213.152V208.901H207.602V211.876H213.152V214.176H205.302V196.676ZM216.679 196.676H219.004L222.229 206.901V196.676H224.529V214.176H222.229L218.979 203.876V214.176H216.679V196.676ZM228.447 196.676H236.297V206.576H233.997V198.976H230.747V211.876H236.297V214.176H228.447V196.676ZM239.457 196.676H247.307V198.976H241.757V206.601H247.307V208.901H241.757V211.876H247.307V214.176H239.457V196.676Z" fill="black"/>
<path d="M86.7672 181.77C86.7672 195.379 89.4478 208.856 94.6559 221.429C99.8641 234.003 107.498 245.427 117.121 255.051C126.745 264.674 138.169 272.308 150.743 277.516C163.316 282.724 176.793 285.405 190.402 285.405C204.012 285.405 217.488 282.724 230.062 277.516C242.635 272.308 254.06 264.674 263.683 255.051C273.307 245.427 280.94 234.003 286.148 221.429C291.357 208.855 294.037 195.379 294.037 181.77H288.71C288.71 194.68 286.167 207.463 281.227 219.39C276.286 231.318 269.045 242.155 259.916 251.284C250.787 260.412 239.95 267.654 228.023 272.594C216.096 277.535 203.312 280.077 190.402 280.077C177.492 280.077 164.709 277.535 152.781 272.594C140.854 267.654 130.017 260.412 120.888 251.284C111.759 242.155 104.518 231.318 99.5776 219.39C94.6372 207.463 92.0944 194.68 92.0944 181.77L86.7672 181.77Z" fill="#01505F"/>
<path d="M270.283 117.765C260.492 106.399 248.35 97.2952 234.696 91.081C221.042 84.8668 206.203 81.6909 191.201 81.7726L191.23 87.0997C205.46 87.0222 219.538 90.0349 232.489 95.9297C245.441 101.824 256.959 110.461 266.247 121.242L270.283 117.765Z" fill="#FE1800"/>
<path d="M189.961 45.4086C172.054 45.4666 154.333 49.0511 137.811 55.9574C121.29 62.8638 106.29 72.9568 93.6684 85.6601C81.0471 98.3633 71.0515 113.428 64.2523 129.994C57.4531 146.561 53.9834 164.304 54.0414 182.211L76.2232 182.139C76.1747 167.145 79.0799 152.288 84.7731 138.417C90.4663 124.545 98.8359 111.931 109.404 101.294C119.972 90.6573 132.532 82.2062 146.366 76.4233C160.201 70.6404 175.039 67.639 190.033 67.5904L189.961 45.4086Z" fill="black"/>
<path d="M54.0395 181.508C54.0051 199.415 57.4981 217.153 64.3191 233.711C71.1401 250.268 81.1555 265.32 93.7935 278.006C106.432 290.693 121.445 300.766 137.976 307.651C154.507 314.536 172.232 318.097 190.139 318.131L190.182 295.949C175.187 295.921 160.346 292.939 146.504 287.174C132.662 281.409 120.091 272.975 109.509 262.352C98.9265 251.729 90.5402 239.126 84.8288 225.262C79.1174 211.398 76.1926 196.544 76.2214 181.55L54.0395 181.508Z" fill="#FF0404"/>
<path d="M305.222 250.684C320.725 222.251 325.603 189.227 318.981 157.525C312.36 125.824 294.671 97.5138 269.082 77.6631L262.839 85.7109C286.517 104.079 302.884 130.274 309.011 159.608C315.138 188.942 310.625 219.498 296.279 245.808L305.222 250.684Z" fill="#00D44C"/>
<path d="M346.309 183.588C346.309 142.789 330.177 103.646 301.43 74.6957C272.683 45.7452 233.655 29.3364 192.857 29.0483C152.06 28.7602 112.804 44.6162 83.651 73.1578C54.4982 101.699 37.8142 140.611 37.2381 181.405L44.4055 181.507C44.955 142.604 60.8651 105.498 88.6656 78.2799C116.466 51.0621 153.902 35.9415 192.807 36.2163C231.712 36.491 268.93 52.1387 296.343 79.7464C323.757 107.354 339.141 144.682 339.141 183.588H346.309Z" fill="#F75C10"/>
<path d="M212.881 321.788C246.685 316.5 277.543 299.465 300.03 273.676L297.051 271.079C275.175 296.166 245.156 312.739 212.27 317.883L212.881 321.788Z" fill="#FFB600"/>
</svg>
